# xmcd
#
# Track frame offsets: 
#        150
#        13406
#        28790
#        43651
#        54429
#        70763
#        83579
#        94228
#        103650
#        113394
#        124284
#        135236
#        148847
#        158753
#        169410
#        179167
#        191798
#        203017
#        214585
#        228084
#        237900
#        250886
#
# Disc length: 3498 seconds
#
# Revision: 0
# Processed by: cddbd v1.5.1PL2 Copyright (c) Steve Scherf et al.
# Submitted via: ExactAudioCopy v0.95b1
#
DISCID=350da816
DTITLE=George Jones and Tammy Wynette - Let's Build A World Together and W
DTITLE=e're Gonna Hold On
DYEAR=1900
DGENRE=Country
TTITLE0=Let's Build A World Together
TTITLE1=The World Needs A Melody
TTITLE2=When I Stop Dreaming
TTITLE3=After The Fire Is Gone
TTITLE4=My Elusive Dreams
TTITLE5=Your Shining Face
TTITLE6=Touching Shoulders
TTITLE7=Love Is All We Need
TTITLE8=Help The People
TTITLE9=Our Way Of Life
TTITLE10=This Growing Old Together Love We Share
TTITLE11=We're Gonna Hold On
TTITLE12=When True Love Steps In
TTITLE13=Never Ending Song Of Love
TTITLE14=Wouldn't I
TTITLE15=Roll In My Sweet Baby's Arms
TTITLE16=The Jet Set (We're Not)
TTITLE17=Crawdad Song
TTITLE18=If Loving You Starts Hurting Me
TTITLE19=That Man Of Mine (Solo - Tammy)
TTITLE20=The Woman Loves Me Right (Solo - George)
TTITLE21=As Long As We Can
EXTD=
EXTT0=
EXTT1=
EXTT2=
EXTT3=
EXTT4=
EXTT5=
EXTT6=
EXTT7=
EXTT8=
EXTT9=
EXTT10=
EXTT11=
EXTT12=
EXTT13=
EXTT14=
EXTT15=
EXTT16=
EXTT17=
EXTT18=
EXTT19=
EXTT20=
EXTT21=
PLAYORDER=
